<svg viewBox="0 0 256 256" xmlns="http://www.w3.org/2000/svg">
  <path fill="#ffffff" d="m 51,0 h 154 a 51,51 45 0 1 51,51 v 154 a 51,51 135 0 1 -51,51 H 51 A 51,51 45 0 1 0,205 V 51 A 51,51 135 0 1 51,0 Z" />
  <path fill="#2d5a24" d="m 127.99876,31.999999 c -16.21084,0 -32.147438,4.105679 -46.327549,11.918611 -0.928745,0.511726 -1.671831,1.802086 -1.671831,2.862451 V 79.99938 H 46.781061 c -1.060365,0 -2.350725,0.743086 -2.862451,1.671831 C 36.105246,95.852043 31.99952,111.78954 32,128.00124 32.00048,181.0197 74.980309,223.99952 127.99876,224 c 16.2117,4.8e-4 32.14916,-4.10525 46.33003,-11.9186 0.92875,-0.51174 1.67183,-1.8021 1.67183,-2.86245 V 176.00062 H 127.99876 A 47.99983,47.99983 0 0 1 79.99938,128.00124 v -0.002 -47.996898 h 47.99938 0.002 a 47.99983,47.99983 0 0 1 47.99938,47.996898 47.99983,47.99983 0 0 1 0,0.002 v 47.99938 h 33.21832 c 1.06036,0 2.35072,-0.74308 2.86245,-1.67183 7.81346,-14.18011 11.91913,-30.11666 11.91909,-46.32755 8.6e-4,-53.020371 -42.98087,-96.002104 -96.00124,-96.001241 z m 48.00186,95.998761 -15.16553,-1.79833 A 35.459644,35.459644 0 0 1 129.79958,95.164911 L 127.99876,80.00186 126.20043,95.164911 A 35.459644,35.459644 0 0 1 95.164911,126.20043 l -15.165531,1.79833 15.165531,1.80082 a 35.459644,35.459644 0 0 1 31.035519,31.03551 l 1.79833,15.16553 1.80082,-15.16553 a 35.459644,35.459644 0 0 1 31.03551,-31.03551 z" />
</svg>
